<svg xmlns="http://www.w3.org/2000/svg" xmlns:xlink="http://www.w3.org/1999/xlink" width="200" zoomAndPan="magnify" viewBox="0 0 150 37.5" height="50" preserveAspectRatio="xMidYMid meet" version="1.0"><defs><g/><clipPath id="30f32eef30"><path d="M 0.988281 3 L 24 3 L 24 27 L 0.988281 27 Z M 0.988281 3 " clip-rule="nonzero"/></clipPath><clipPath id="0615eba967"><path d="M 127 13 L 149.011719 13 L 149.011719 37 L 127 37 Z M 127 13 " clip-rule="nonzero"/></clipPath></defs><g fill="#000000" fill-opacity="1"><g transform="translate(27.170334, 27.635258)"><g><path d="M 11.09375 -18.109375 C 12.800781 -18.109375 14.300781 -17.71875 15.59375 -16.9375 C 16.894531 -16.164062 17.894531 -15.082031 18.59375 -13.6875 C 19.300781 -12.300781 19.65625 -10.710938 19.65625 -8.921875 C 19.65625 -7.617188 19.457031 -6.46875 19.0625 -5.46875 C 18.675781 -4.46875 18.125 -3.6875 17.40625 -3.125 C 16.6875 -2.570312 15.863281 -2.296875 14.9375 -2.296875 C 14.207031 -2.296875 13.582031 -2.476562 13.0625 -2.84375 C 12.539062 -3.21875 12.148438 -3.757812 11.890625 -4.46875 C 11.304688 -3.71875 10.75 -3.15625 10.21875 -2.78125 C 9.695312 -2.40625 9.085938 -2.21875 8.390625 -2.21875 C 7.835938 -2.21875 7.332031 -2.367188 6.875 -2.671875 C 6.425781 -2.972656 6.070312 -3.40625 5.8125 -3.96875 C 5.550781 -4.539062 5.421875 -5.21875 5.421875 -6 C 5.421875 -7.019531 5.660156 -8.09375 6.140625 -9.21875 C 6.628906 -10.351562 7.28125 -11.296875 8.09375 -12.046875 C 8.914062 -12.804688 9.800781 -13.1875 10.75 -13.1875 C 11.71875 -13.1875 12.4375 -12.628906 12.90625 -11.515625 L 13.421875 -12.5625 C 13.492188 -12.6875 13.632812 -12.75 13.84375 -12.75 C 14.007812 -12.75 14.203125 -12.710938 14.421875 -12.640625 C 14.640625 -12.554688 14.8125 -12.441406 14.9375 -12.296875 C 15.070312 -12.160156 15.113281 -12.015625 15.0625 -11.859375 L 13.78125 -6.78125 C 13.695312 -6.476562 13.65625 -6.1875 13.65625 -5.90625 C 13.65625 -5.4375 13.765625 -5.070312 13.984375 -4.8125 C 14.210938 -4.550781 14.523438 -4.421875 14.921875 -4.421875 C 15.753906 -4.421875 16.410156 -4.832031 16.890625 -5.65625 C 17.378906 -6.476562 17.625 -7.566406 17.625 -8.921875 C 17.625 -10.378906 17.351562 -11.640625 16.8125 -12.703125 C 16.28125 -13.773438 15.515625 -14.597656 14.515625 -15.171875 C 13.523438 -15.753906 12.351562 -16.046875 11 -16.046875 C 9.476562 -16.046875 8.097656 -15.628906 6.859375 -14.796875 C 5.617188 -13.960938 4.648438 -12.820312 3.953125 -11.375 C 3.253906 -9.925781 2.90625 -8.3125 2.90625 -6.53125 C 2.90625 -5.101562 3.15625 -3.859375 3.65625 -2.796875 C 4.164062 -1.734375 4.90625 -0.914062 5.875 -0.34375 C 6.851562 0.21875 8.03125 0.5 9.40625 0.5 C 10.175781 0.5 10.929688 0.441406 11.671875 0.328125 C 12.421875 0.222656 13.09375 0.0703125 13.6875 -0.125 C 13.78125 -0.144531 13.84375 -0.15625 13.875 -0.15625 C 14.1875 -0.15625 14.414062 0.0976562 14.5625 0.609375 C 14.625 0.804688 14.65625 0.960938 14.65625 1.078125 C 14.65625 1.378906 14.519531 1.585938 14.25 1.703125 C 13.644531 1.960938 12.914062 2.171875 12.0625 2.328125 C 11.21875 2.492188 10.34375 2.578125 9.4375 2.578125 C 7.65625 2.578125 6.117188 2.207031 4.828125 1.46875 C 3.546875 0.738281 2.5625 -0.304688 1.875 -1.671875 C 1.1875 -3.046875 0.84375 -4.664062 0.84375 -6.53125 C 0.84375 -8.707031 1.285156 -10.675781 2.171875 -12.4375 C 3.066406 -14.207031 4.289062 -15.59375 5.84375 -16.59375 C 7.40625 -17.601562 9.15625 -18.109375 11.09375 -18.109375 Z M 10.6875 -11.046875 C 10.28125 -11.046875 9.835938 -10.796875 9.359375 -10.296875 C 8.890625 -9.804688 8.492188 -9.171875 8.171875 -8.390625 C 7.847656 -7.609375 7.6875 -6.820312 7.6875 -6.03125 C 7.6875 -5.5 7.785156 -5.101562 7.984375 -4.84375 C 8.191406 -4.59375 8.460938 -4.46875 8.796875 -4.46875 C 9.347656 -4.46875 9.867188 -4.722656 10.359375 -5.234375 C 10.847656 -5.742188 11.238281 -6.382812 11.53125 -7.15625 C 11.820312 -7.925781 11.96875 -8.679688 11.96875 -9.421875 C 11.96875 -9.941406 11.851562 -10.34375 11.625 -10.625 C 11.40625 -10.90625 11.09375 -11.046875 10.6875 -11.046875 Z M 10.6875 -11.046875 "/></g></g></g><g fill="#000000" fill-opacity="1"><g transform="translate(47.80194, 27.635258)"><g><path d="M 15.453125 -15.890625 C 16.328125 -15.890625 17.144531 -15.664062 17.90625 -15.21875 C 18.351562 -14.945312 18.578125 -14.597656 18.578125 -14.171875 C 18.578125 -13.972656 18.523438 -13.738281 18.421875 -13.46875 C 18.191406 -12.832031 17.867188 -12.515625 17.453125 -12.515625 C 17.285156 -12.515625 17.128906 -12.5625 16.984375 -12.65625 C 16.429688 -12.957031 15.84375 -13.109375 15.21875 -13.109375 C 14.207031 -13.109375 13.191406 -12.753906 12.171875 -12.046875 C 11.160156 -11.347656 10.328125 -10.414062 9.671875 -9.25 C 9.015625 -8.09375 8.6875 -6.859375 8.6875 -5.546875 L 8.6875 -2.28125 L 14.34375 -2.28125 C 14.726562 -2.28125 15 -2.191406 15.15625 -2.015625 C 15.320312 -1.847656 15.40625 -1.554688 15.40625 -1.140625 C 15.40625 -0.722656 15.320312 -0.425781 15.15625 -0.25 C 15 -0.0820312 14.726562 0 14.34375 0 L 3.53125 0 C 3.144531 0 2.867188 -0.0820312 2.703125 -0.25 C 2.546875 -0.425781 2.46875 -0.722656 2.46875 -1.140625 C 2.46875 -1.554688 2.546875 -1.847656 2.703125 -2.015625 C 2.867188 -2.191406 3.144531 -2.28125 3.53125 -2.28125 L 6.171875 -2.28125 L 6.171875 -13.234375 L 4.03125 -13.234375 C 3.644531 -13.234375 3.367188 -13.320312 3.203125 -13.5 C 3.046875 -13.675781 2.96875 -13.96875 2.96875 -14.375 C 2.96875 -14.789062 3.046875 -15.082031 3.203125 -15.25 C 3.367188 -15.425781 3.644531 -15.515625 4.03125 -15.515625 L 7.453125 -15.515625 C 7.835938 -15.515625 8.109375 -15.425781 8.265625 -15.25 C 8.429688 -15.082031 8.515625 -14.789062 8.515625 -14.375 L 8.515625 -10.984375 C 9.054688 -11.972656 9.707031 -12.835938 10.46875 -13.578125 C 11.226562 -14.316406 12.039062 -14.882812 12.90625 -15.28125 C 13.769531 -15.6875 14.617188 -15.890625 15.453125 -15.890625 Z M 15.453125 -15.890625 "/></g></g></g><g fill="#000000" fill-opacity="1"><g transform="translate(68.433546, 27.635258)"><g><path d="M 10.3125 -15.890625 C 11.84375 -15.890625 13.222656 -15.539062 14.453125 -14.84375 C 15.691406 -14.15625 16.660156 -13.191406 17.359375 -11.953125 C 18.054688 -10.710938 18.40625 -9.316406 18.40625 -7.765625 C 18.40625 -6.203125 18.054688 -4.800781 17.359375 -3.5625 C 16.660156 -2.332031 15.691406 -1.367188 14.453125 -0.671875 C 13.222656 0.0234375 11.84375 0.375 10.3125 0.375 C 8.78125 0.375 7.394531 0.0234375 6.15625 -0.671875 C 4.925781 -1.367188 3.960938 -2.332031 3.265625 -3.5625 C 2.566406 -4.800781 2.21875 -6.203125 2.21875 -7.765625 C 2.21875 -9.316406 2.566406 -10.710938 3.265625 -11.953125 C 3.960938 -13.191406 4.925781 -14.15625 6.15625 -14.84375 C 7.394531 -15.539062 8.78125 -15.890625 10.3125 -15.890625 Z M 10.3125 -13.40625 C 9.226562 -13.40625 8.273438 -13.164062 7.453125 -12.6875 C 6.628906 -12.21875 5.992188 -11.550781 5.546875 -10.6875 C 5.097656 -9.832031 4.875 -8.859375 4.875 -7.765625 C 4.875 -6.660156 5.097656 -5.679688 5.546875 -4.828125 C 5.992188 -3.972656 6.628906 -3.304688 7.453125 -2.828125 C 8.273438 -2.347656 9.226562 -2.109375 10.3125 -2.109375 C 11.394531 -2.109375 12.347656 -2.347656 13.171875 -2.828125 C 14.003906 -3.304688 14.644531 -3.972656 15.09375 -4.828125 C 15.539062 -5.679688 15.765625 -6.660156 15.765625 -7.765625 C 15.765625 -8.859375 15.539062 -9.832031 15.09375 -10.6875 C 14.644531 -11.550781 14.003906 -12.21875 13.171875 -12.6875 C 12.347656 -13.164062 11.394531 -13.40625 10.3125 -13.40625 Z M 10.3125 -13.40625 "/></g></g></g><g fill="#000000" fill-opacity="1"><g transform="translate(89.065151, 27.635258)"><g><path d="M 20.015625 -2.28125 C 20.390625 -2.28125 20.65625 -2.191406 20.8125 -2.015625 C 20.976562 -1.847656 21.0625 -1.554688 21.0625 -1.140625 C 21.0625 -0.722656 20.976562 -0.425781 20.8125 -0.25 C 20.65625 -0.0820312 20.390625 0 20.015625 0 L 17.5 0 C 17.125 0 16.851562 -0.0820312 16.6875 -0.25 C 16.53125 -0.425781 16.453125 -0.722656 16.453125 -1.140625 L 16.453125 -11.09375 C 16.453125 -11.863281 16.320312 -12.441406 16.0625 -12.828125 C 15.8125 -13.210938 15.40625 -13.40625 14.84375 -13.40625 C 14.320312 -13.40625 13.835938 -13.160156 13.390625 -12.671875 C 12.941406 -12.179688 12.582031 -11.503906 12.3125 -10.640625 C 12.050781 -9.773438 11.921875 -8.785156 11.921875 -7.671875 L 11.921875 -2.28125 L 12.890625 -2.28125 C 13.265625 -2.28125 13.53125 -2.191406 13.6875 -2.015625 C 13.851562 -1.847656 13.9375 -1.554688 13.9375 -1.140625 C 13.9375 -0.722656 13.851562 -0.425781 13.6875 -0.25 C 13.53125 -0.0820312 13.265625 0 12.890625 0 L 10.46875 0 C 10.082031 0 9.804688 -0.0820312 9.640625 -0.25 C 9.484375 -0.425781 9.40625 -0.722656 9.40625 -1.140625 L 9.40625 -11.09375 C 9.40625 -11.863281 9.28125 -12.441406 9.03125 -12.828125 C 8.78125 -13.210938 8.375 -13.40625 7.8125 -13.40625 C 7.28125 -13.40625 6.789062 -13.160156 6.34375 -12.671875 C 5.894531 -12.179688 5.539062 -11.503906 5.28125 -10.640625 C 5.019531 -9.773438 4.890625 -8.785156 4.890625 -7.671875 L 4.890625 -2.28125 L 5.765625 -2.28125 C 6.140625 -2.28125 6.410156 -2.191406 6.578125 -2.015625 C 6.742188 -1.847656 6.828125 -1.554688 6.828125 -1.140625 C 6.828125 -0.722656 6.742188 -0.425781 6.578125 -0.25 C 6.410156 -0.0820312 6.140625 0 5.765625 0 L 0.984375 0 C 0.609375 0 0.335938 -0.0820312 0.171875 -0.25 C 0.015625 -0.425781 -0.0625 -0.722656 -0.0625 -1.140625 C -0.0625 -1.554688 0.015625 -1.847656 0.171875 -2.015625 C 0.335938 -2.191406 0.609375 -2.28125 0.984375 -2.28125 L 2.375 -2.28125 L 2.375 -13.234375 L 0.984375 -13.234375 C 0.609375 -13.234375 0.335938 -13.320312 0.171875 -13.5 C 0.015625 -13.675781 -0.0625 -13.96875 -0.0625 -14.375 C -0.0625 -14.789062 0.015625 -15.082031 0.171875 -15.25 C 0.335938 -15.425781 0.609375 -15.515625 0.984375 -15.515625 L 3.5 -15.515625 C 3.875 -15.515625 4.140625 -15.425781 4.296875 -15.25 C 4.460938 -15.082031 4.546875 -14.789062 4.546875 -14.375 L 4.546875 -12.71875 C 5.035156 -13.769531 5.613281 -14.5625 6.28125 -15.09375 C 6.957031 -15.625 7.6875 -15.890625 8.46875 -15.890625 C 9.226562 -15.890625 9.894531 -15.628906 10.46875 -15.109375 C 11.039062 -14.597656 11.425781 -13.847656 11.625 -12.859375 C 12.625 -14.878906 13.910156 -15.890625 15.484375 -15.890625 C 16.148438 -15.890625 16.742188 -15.722656 17.265625 -15.390625 C 17.785156 -15.066406 18.195312 -14.566406 18.5 -13.890625 C 18.8125 -13.210938 18.96875 -12.378906 18.96875 -11.390625 L 18.96875 -2.28125 Z M 20.015625 -2.28125 "/></g></g></g><g fill="#000000" fill-opacity="1"><g transform="translate(109.696757, 27.635258)"><g><path d="M 10.46875 -15.890625 C 12.09375 -15.890625 13.476562 -15.5625 14.625 -14.90625 C 15.769531 -14.25 16.648438 -13.34375 17.265625 -12.1875 C 17.878906 -11.03125 18.234375 -9.695312 18.328125 -8.1875 C 18.328125 -7.800781 18.242188 -7.53125 18.078125 -7.375 C 17.921875 -7.21875 17.648438 -7.140625 17.265625 -7.140625 L 5.109375 -7.140625 C 5.179688 -5.472656 5.675781 -4.207031 6.59375 -3.34375 C 7.507812 -2.488281 8.800781 -2.0625 10.46875 -2.0625 C 11.5 -2.0625 12.515625 -2.191406 13.515625 -2.453125 C 14.523438 -2.722656 15.410156 -3.078125 16.171875 -3.515625 C 16.367188 -3.609375 16.546875 -3.65625 16.703125 -3.65625 C 17.085938 -3.65625 17.40625 -3.359375 17.65625 -2.765625 C 17.757812 -2.535156 17.8125 -2.328125 17.8125 -2.140625 C 17.8125 -1.691406 17.5625 -1.34375 17.0625 -1.09375 C 16.207031 -0.65625 15.191406 -0.300781 14.015625 -0.03125 C 12.835938 0.238281 11.65625 0.375 10.46875 0.375 C 8.769531 0.375 7.320312 0.0507812 6.125 -0.59375 C 4.925781 -1.25 4.015625 -2.1875 3.390625 -3.40625 C 2.765625 -4.625 2.453125 -6.078125 2.453125 -7.765625 C 2.453125 -9.359375 2.789062 -10.769531 3.46875 -12 C 4.15625 -13.238281 5.101562 -14.195312 6.3125 -14.875 C 7.519531 -15.550781 8.90625 -15.890625 10.46875 -15.890625 Z M 10.46875 -13.453125 C 9.09375 -13.453125 7.953125 -13.101562 7.046875 -12.40625 C 6.140625 -11.707031 5.550781 -10.734375 5.28125 -9.484375 L 15.546875 -9.484375 C 15.304688 -10.773438 14.765625 -11.757812 13.921875 -12.4375 C 13.078125 -13.113281 11.925781 -13.453125 10.46875 -13.453125 Z M 10.46875 -13.453125 "/></g></g></g><g clip-path="url(#30f32eef30)"><g fill="#000000" fill-opacity="1"><g transform="translate(-3.365248, 25.8545)"><g><path d="M 21.953125 -2.203125 L 20.859375 1.140625 L 6.265625 -12.15625 L 7.125 -14.765625 L 26.75 -16.875 L 25.65625 -13.53125 L 11.1875 -12.234375 L 11.046875 -11.8125 Z M 21.953125 -2.203125 "/></g></g></g></g><g clip-path="url(#0615eba967)"><g fill="#000000" fill-opacity="1"><g transform="translate(123.677814, 36.628343)"><g><path d="M 23.375 -7.984375 L 3.953125 -4.546875 L 4.8125 -7.953125 L 19.15625 -10.25 L 19.265625 -10.6875 L 7.75 -19.515625 L 8.609375 -22.921875 L 24.046875 -10.640625 Z M 23.375 -7.984375 "/></g></g></g></g><g fill="#000000" fill-opacity="1"><g transform="translate(17.471959, 29.178327)"><g><path d="M 2.8125 3.71875 L 0.171875 3.53125 L 11.390625 -25.234375 L 14.03125 -25.046875 Z M 2.8125 3.71875 "/></g></g></g></svg>